<?xml version="1.0" encoding="UTF-8" standalone="no"?>
<!-- Created with Inkscape (http://www.inkscape.org/) -->

<svg
   version="1.1"
   id="svg362"
   width="255"
   height="255"
   viewBox="0 0 255 255"
   sodipodi:docname="revolver.svg"
   inkscape:version="1.1 (c68e22c387, 2021-05-23)"
   xmlns:inkscape="http://www.inkscape.org/namespaces/inkscape"
   xmlns:sodipodi="http://sodipodi.sourceforge.net/DTD/sodipodi-0.dtd"
   xmlns="http://www.w3.org/2000/svg"
   xmlns:svg="http://www.w3.org/2000/svg">
  <defs
     id="defs366" />
  <sodipodi:namedview
     id="namedview364"
     pagecolor="#ffffff"
     bordercolor="#666666"
     borderopacity="1.0"
     inkscape:pageshadow="2"
     inkscape:pageopacity="0.0"
     inkscape:pagecheckerboard="0"
     showgrid="true"
     inkscape:zoom="2.215233"
     inkscape:cx="70.421486"
     inkscape:cy="132.94313"
     inkscape:window-width="1920"
     inkscape:window-height="991"
     inkscape:window-x="-9"
     inkscape:window-y="-9"
     inkscape:window-maximized="1"
     inkscape:current-layer="layer3"
     width="255px">
    <inkscape:grid
       type="xygrid"
       id="grid2602" />
  </sodipodi:namedview>
  <g
     inkscape:groupmode="layer"
     id="layer3"
     inkscape:label="Image 1"
     style="display:inline">
    <ellipse
       style="fill:#000000;fill-opacity:1;stroke-width:0.865719"
       id="path1488"
       cx="128.2182"
       cy="53.386803"
       rx="30.718204"
       ry="30.478804" />
  </g>
  <g
     inkscape:groupmode="layer"
     id="layer4"
     inkscape:label="Image 2"
     style="display:inline">
    <circle
       style="fill:#686868;fill-opacity:1;stroke-width:1.57771"
       id="path2498"
       cx="127.5"
       cy="53.408001"
       r="17.5" />
  </g>
  <g
     inkscape:groupmode="layer"
     inkscape:label="Image"
     id="g368"
     style="display:inline">
    <path
       style="fill:#bebebe;fill-opacity:1;stroke:none"
       d="m 116.49954,6.9644641 c -4.703,0.49257 -11.191,0.45387 -15.175,3.3152899 -3.771898,2.7087 -5.068798,8.4271 -7.500898,12.2151 -3.66431,5.7071 -8.69171,10.6142 -14.32441,14.3673 -7.2027,4.799 -15.326,8.3819 -23.9997,9.291 -5.1006,0.5347 -11.147299,-1.6373 -15.965399,0.2962 -8.8629,3.5565 -15.3163,17.025201 -19.451,25.045401 -2.8216,5.4731 -7.7318,13.6269 -7.0528,20 0.5186,4.8676 4.795,8.828005 7.0206,13.000005 3.273,6.136 5.0448,13.068 5.3525,20 0.3826,8.619 -0.9597,17.228 -4.8388,25 -2.9607,5.932 -8.8605,10.827 -7.1398,18 2.9087,12.125 13.8608,36.13 26.1093,41.045 4.5523,1.827 10.173599,-0.137 14.965399,0.191 7.8537,0.537 15.3023,3.417 22,7.445 6.8374,4.111 13.191,9.638 17.62791,16.319 2.4814,3.736 3.5738,9.477 7.283098,12.215 8.355,6.166 27.349,4.335 37.089,3.315 4.651,-0.487 11.177,-0.428 15.089,-3.315 3.709,-2.738 4.802,-8.479 7.283,-12.215 3.992,-6.011 9.601,-11.157 15.628,-15.075 7.2,-4.68 15.358,-8.098 24,-8.689 4.792,-0.328 10.413,1.636 14.965,-0.191 8.61,-3.454 14.82,-16.296 18.928,-24.045 3.01,-5.677 8.285,-14.342 7.576,-21 -0.518,-4.868 -4.795,-8.828 -7.02,-13 -3.273,-6.136 -5.045,-13.068 -5.353,-20 -0.383,-8.619 0.96,-17.228 4.839,-25 2.961,-5.932003 8.86,-10.826905 7.14,-18.000005 -2.909,-12.1248 -13.861,-36.130301 -26.11,-41.045401 -4.563,-1.8312 -10.163,0.1584 -14.965,-0.2051 -7.863,-0.5951 -15.274,-3.5313 -22,-7.5164 -6.53,-3.8689 -12.364,-8.9385 -16.665,-15.2338 -2.736,-4.0052 -4.125,-10.3169 -8.16,-13.2143 -8.518,-6.1170504 -27.311,-4.3484004 -37.175,-3.3152899 m 5,18.1049899 c 36.769,-7.056 49.003,50.170801 12,56.874801 -36.876098,6.6809 -48.945308,-49.784901 -12,-56.874801 m -64.000008,37.0005 c 36.74051,-7.0257 48.830008,49.781806 12,56.849806 -36.926599,7.087 -48.964199,-49.781305 -12,-56.849806 m 129.000008,-0.0824 c 36.381,-5.817 47.517,50.542206 11,56.965206 -37.405,6.58 -48.668,-50.942605 -11,-56.965206 m -61.985,53.253206 c 15.839,-3.766 21.829,20.736 5.97,24.508 -15.839,3.766 -21.829,-20.736 -5.97,-24.508 m -67.015008,20.796 c 36.89931,-6.491 48.965008,49.527 12,56.789 -36.779899,7.227 -48.958499,-50.288 -12,-56.789 m 128.000008,0.009 c 36.921,-6.69 48.871,49.823 12,56.874 -36.751,7.027 -49.061,-50.16 -12,-56.874 m -64,36.944 c 37.609,-6.147 48.76,51.022 11,57.011 -36.405498,5.775 -47.465608,-51.051 -11,-57.011 z"
       id="path1358" />
  </g>
</svg>
